HIERARCHY
ROOT Hips
{
  OFFSET 57.8838 95.319 338.509
  CHANNELS 6 Xposition Yposition Zposition Zrotation Xrotation Yrotation
  JOINT LeftUpLeg
  {
    OFFSET 8.64259 1.95398 -2.38835
    CHANNELS 3 Zrotation Xrotation Yrotation
    JOINT LeftLeg
    {
      OFFSET 43.7702 0 0
      CHANNELS 3 Zrotation Xrotation Yrotation
      JOINT LeftFoot
      {
        OFFSET 40.6238 0 0
        CHANNELS 3 Zrotation Xrotation Yrotation
        JOINT LeftToeBase
        {
          OFFSET 12.7242 0 0
          CHANNELS 3 Zrotation Xrotation Yrotation
          End Site
          {
            OFFSET 0 0 0
          }
        }
      }
    }
  }
  JOINT RightUpLeg
  {
    OFFSET -8.2249 1.95398 -2.59336
    CHANNELS 3 Zrotation Xrotation Yrotation
    JOINT RightLeg
    {
      OFFSET 43.5653 0 0
      CHANNELS 3 Zrotation Xrotation Yrotation
      JOINT RightFoot
      {
        OFFSET 40.6238 0 0
        CHANNELS 3 Zrotation Xrotation Yrotation
        JOINT RightToeBase
        {
          OFFSET 12.7242 0 0
          CHANNELS 3 Zrotation Xrotation Yrotation
          End Site
          {
            OFFSET 0 0 0
          }
        }
      }
    }
  }
  JOINT Spine
  {
    OFFSET 0.165834 0.87714 6.61349
    CHANNELS 3 Zrotation Xrotation Yrotation
    JOINT Spine1
    {
      OFFSET 7.38963 1.71661e-005 0
      CHANNELS 3 Zrotation Xrotation Yrotation
      JOINT Spine2
      {
        OFFSET 11.9445 1.14441e-005 0
        CHANNELS 3 Zrotation Xrotation Yrotation
        JOINT Spine3
        {
          OFFSET 14.7254 4.19617e-005 0
          CHANNELS 3 Zrotation Xrotation Yrotation
          JOINT Spine4
          {
            OFFSET 10.9679 0 0
            CHANNELS 3 Zrotation Xrotation Yrotation
            JOINT RightShoulder
            {
              OFFSET 2.46616 -1.6653 3.69651
              CHANNELS 3 Zrotation Xrotation Yrotation
              JOINT RightArm
              {
                OFFSET 13.0012 0 0
                CHANNELS 3 Zrotation Xrotation Yrotation
                JOINT RightForeArm
                {
                  OFFSET 28.7848 1.62311e-005 0
                  CHANNELS 3 Zrotation Xrotation Yrotation
                  JOINT RightHand
                  {
                    OFFSET 26.5688 1.62095e-005 0
                    CHANNELS 3 Zrotation Xrotation Yrotation
                    End Site
                    {
                      OFFSET 0 0 0
                    }
                  }
                }
              }
            }
            JOINT LeftShoulder
            {
              OFFSET 2.38034 -1.29275 -3.7523
              CHANNELS 3 Zrotation Xrotation Yrotation
              JOINT LeftArm
              {
                OFFSET 16.3182 6.07031e-005 0
                CHANNELS 3 Zrotation Xrotation Yrotation
                JOINT LeftForeArm
                {
                  OFFSET 27.0901 0 0
                  CHANNELS 3 Zrotation Xrotation Yrotation
                  JOINT LeftHand
                  {
                    OFFSET 24.5451 1.51738e-005 0
                    CHANNELS 3 Zrotation Xrotation Yrotation
                    End Site
                    {
                      OFFSET 0 0 0
                    }
                  }
                }
              }
            }
            JOINT Neck
            {
              OFFSET 5.0226 -0.0266342 0
              CHANNELS 3 Zrotation Xrotation Yrotation
              JOINT Head
              {
                OFFSET 6.69364 2.86102e-005 0
                CHANNELS 3 Zrotation Xrotation Yrotation
                End Site
                {
                  OFFSET 0 0 0
                }
              }
            }
          }
        }
      }
    }
  }
}
MOTION
Frames:	18
Frame Time:	0.0416667
-4.38537 97.4562 -4.90934 123.302 -83.3231 123.106 -177.314 1.48945 89.1274 -12.9778 3.84486 1.25587 63.9337 3.32269 0.166604 30.044 0.411974 2.08055 172.651 2.358 89.8061 -15.261 -4.14609 -0.321382 65.4263 -3.5125 2.88962 29.1204 -0.459541 0.230661 -0.264458 7.36748 -90.1929 12.1381 -0.61691 -0.316733 0.467255 -0.630253 -0.289281 -22.0684 -0.493201 -0.487502 -2.05577 -0.493204 -0.487506 96.1183 -51.3186 -91.2348 28.8633 -16.8587 -11.3454 1.97413 -8.5288 -14.9479 -11.2686 -0.565617 0.666581 -80.4593 -50.8985 93.1552 -43.38 -22.7889 -23.0075 4.62195 69.3979 -0.00270161 0.368561 -0.112285 -13.2711 21.162 0.0721004 -3.81108 -18.3231 0.254004 7.25798 
-4.40893 97.4596 -4.9454 123.076 -83.1612 122.842 -177.357 1.42643 89.0496 -12.7584 3.06055 1.32892 63.9837 3.2433 -0.149845 29.7309 0.319422 1.28931 172.611 2.27056 89.7695 -15.2882 -3.96984 -0.310303 65.5002 -3.45084 3.05729 29.1372 -0.4787 0.131417 -0.277732 7.38419 -90.1828 12.1047 -0.638442 -0.294401 0.433874 -0.650784 -0.266026 -22.1019 -0.520452 -0.472677 -2.08927 -0.52045 -0.472677 96.1959 -51.4706 -91.099 28.6511 -17.0929 -11.4026 2.08614 -7.88027 -14.7238 -10.5832 -0.450548 -0.229212 -80.562 -50.6161 92.9865 -43.1005 -21.9527 -22.5322 3.3576 64.5071 -0.00220871 2.6543 -0.250611 -12.6132 18.1442 -1.89759 -0.248238 -13.9154 -1.87273 0.88988 
-4.40599 97.4622 -4.98022 122.559 -83.1327 122.351 -177.373 1.36032 89.0497 -12.4759 2.62246 1.36324 64.0169 3.32566 -0.371729 29.5747 0.275164 0.887878 172.602 2.4426 89.7818 -15.4931 -3.6901 -0.307769 65.5757 -3.35605 3.36043 29.0838 -0.412459 0.277647 -0.300573 7.40756 -90.1883 12.0579 -0.686404 -0.300395 0.387075 -0.698957 -0.2699 -22.1489 -0.564396 -0.49281 -2.13622 -0.56439 -0.492805 96.2376 -51.4013 -91.0433 28.6193 -17.2378 -11.7566 2.13867 -7.74814 -14.6457 -10.3469 -0.468958 0.093555 -80.4851 -51.0082 93.1222 -42.586 -21.6029 -22.4885 2.75012 61.764 -0.00200934 3.86247 -0.319842 -12.4071 17.6533 -2.39608 1.02691 -12.8418 -2.50975 -1.25403 
-4.42459 97.4887 -5.04072 122.692 -83.1358 122.55 -177.38 1.31494 89.0994 -12.3556 2.9895 1.38116 63.9175 3.35001 -0.109974 29.5845 0.269915 1.06415 172.658 2.55283 89.8733 -15.6164 -3.38792 -0.356631 65.6608 -3.2425 3.7247 28.9856 -0.284686 0.347011 -0.305373 7.43373 -90.1964 12.0055 -0.699718 -0.315567 0.334712 -0.712927 -0.284477 -22.2012 -0.572533 -0.511276 -2.18858 -0.572536 -0.511285 96.0704 -51.4082 -91.2974 28.52 -17.1712 -11.6251 2.1591 -7.36609 -14.7882 -10.4802 -0.454823 -0.139552 -80.586 -50.9598 92.9684 -42.6632 -21.8601 -22.4666 2.92802 62.4482 -0.00205519 3.82691 -0.312627 -12.29 17.6677 -2.4418 1.17358 -12.6726 -2.58859 -1.38777 
-4.42244 97.4945 -5.12974 122.681 -83.1768 122.413 -177.513 1.32554 88.9435 -12.2289 2.72095 1.42801 63.951 3.03692 -0.390056 29.1671 0.0753803 1.42169 172.432 2.80855 89.5983 -16.0231 -3.35937 -0.181582 65.9976 -3.24589 4.16422 28.6904 0.112817 0.184538 -0.292562 7.47898 -90.1712 11.9152 -0.662284 -0.270104 0.2444 -0.673533 -0.240689 -22.2915 -0.550499 -0.45666 -2.27889 -0.550498 -0.456664 96.1862 -51.4025 -91.1215 28.6625 -17.1538 -11.7123 1.99639 -7.96306 -14.9565 -10.5294 -0.452197 -0.194415 -80.5866 -50.6856 92.9531 -43.0488 -21.7989 -22.6765 3.11754 62.7509 -0.00207625 3.60779 -0.317509 -12.6527 18.2933 -2.39069 1.9563 -13.6596 -2.61351 -2.89124 
-4.42626 97.5038 -5.25717 121.161 -83.2464 120.813 -177.518 1.44639 88.9146 -11.8963 2.8969 1.29937 63.7374 3.01394 -0.268995 29.1818 0.086363 1.33543 172.339 3.31053 89.4529 -16.451 -3.21236 -0.0826579 66.3158 -3.14741 4.54408 28.4287 0.454782 0.298587 -0.294268 7.51788 -90.1745 11.8374 -0.667172 -0.27678 0.166559 -0.67871 -0.247144 -22.3694 -0.553154 -0.464507 -2.35672 -0.553149 -0.464501 96.3007 -51.1971 -90.97 28.7591 -17.0723 -11.7347 1.92591 -7.95519 -15.1498 -10.659 -0.456723 -0.20545 -80.7305 -51.1074 92.7604 -42.5917 -21.6735 -22.5945 2.91526 62.5002 -0.00205877 3.44641 -0.322203 -12.8055 18.4034 -2.28212 1.88144 -13.5612 -2.50863 -2.69902 
-4.44356 97.5 -5.4295 117.281 -83.3644 117.038 -177.549 2.15845 89.0012 -12.1011 2.92242 1.2475 63.6848 2.83102 -0.267203 29.0187 0.0367731 1.01916 172.399 3.96488 89.5259 -16.6434 -2.88925 0.0147891 66.3901 -2.72376 4.9921 28.3395 0.588442 -0.00940692 -0.284398 7.56302 -90.1667 11.7471 -0.643864 -0.264395 0.0763362 -0.654877 -0.235811 -22.4595 -0.534635 -0.445685 -2.44691 -0.534634 -0.445687 96.3492 -51.364 -90.8774 28.7269 -17.1318 -12.0407 1.92363 -8.03698 -15.1518 -10.8447 -0.463823 -0.215768 -80.784 -50.9868 92.6732 -42.655 -21.4408 -22.964 2.94006 62.1849 -0.00203727 3.00049 -0.293387 -12.7668 18.3357 -2.40275 1.57111 -12.824 -2.57282 -2.43131 
-4.45202 97.5353 -5.7467 114.532 -83.0039 114.444 -177.635 2.48765 89.1248 -12.0671 3.63162 1.27492 63.5392 2.99304 -0.054626 28.8975 -0.0295048 1.28062 172.396 4.21402 89.6717 -16.6035 -2.2481 0.112624 66.3647 -2.67386 5.11681 28.022 0.984213 0.467814 -0.331107 7.6557 -90.2007 11.5615 -0.752584 -0.322393 -0.109284 -0.76604 -0.288958 -22.6454 -0.620905 -0.53368 -2.63275 -0.620898 -0.533672 96.3854 -51.1312 -90.8482 28.8662 -17.0432 -12.1407 1.82525 -8.098 -15.4624 -11.1338 -0.497112 0.0103848 -80.7526 -51.3847 92.7418 -41.9637 -21.3164 -23.369 2.59829 62.2521 -0.00204181 2.53258 -0.25156 -12.4708 19.0138 -2.33116 2.19668 -13.3574 -2.66521 -2.69945 
-4.52853 97.5201 -6.18411 113.281 -83.1523 113.341 -177.67 3.31071 89.2834 -12.6851 2.94638 1.33888 63.748 2.6644 -0.567006 28.3768 -0.20485 0.622745 172.598 4.83556 89.8774 -16.8605 -2.00285 0.0872928 66.2384 -2.32462 5.4671 28.0604 0.94747 0.220917 -0.294649 7.80045 -90.204 11.2719 -0.681282 -0.33869 -0.398858 -0.695529 -0.308379 -22.9347 -0.548 -0.527786 -2.92203 -0.547996 -0.527784 96.2266 -51.2033 -91.0826 28.5983 -17.253 -12.4992 1.42563 -8.64213 -15.5604 -9.739 -0.393416 -0.500011 -80.9038 -51.4463 92.5201 -41.1488 -20.744 -23.9158 1.94064 60.4517 -0.00192764 2.01995 -0.217775 -12.1447 19.307 -2.29215 2.90593 -12.4822 -2.824 -3.21686 
-4.5749 97.5637 -6.79829 109.645 -83.0929 109.607 -177.988 3.87579 89.1125 -12.1967 3.25008 1.33685 63.247 2.56793 -0.47077 28.099 -0.356314 1.15894 172.522 5.66415 89.731 -16.912 -2.07317 0.294426 66.0192 -2.12342 5.29976 27.7673 1.32891 0.339975 -0.289147 8.00354 -90.1975 10.8659 -0.666891 -0.329793 -0.804929 -0.680763 -0.300124 -23.3407 -0.53695 -0.514982 -3.32807 -0.536944 -0.514974 96.2196 -50.9776 -91.119 28.1314 -17.2022 -12.7557 0.710053 -8.84518 -16.7565 -8.79164 -0.290768 -1.40676 -81.181 -51.3582 92.1016 -39.5459 -19.3587 -24.1586 0.337897 57.0561 -0.00174806 1.52124 -0.259146 -13.0842 19.8629 -2.42157 3.259 -10.7045 -3.14806 -2.65856 
-4.65792 97.5419 -7.86193 103.578 -83.0427 103.603 -178.353 5.42322 89.0502 -12.3986 3.11094 1.34608 62.8048 2.18259 -0.512976 27.5161 -0.584008 0.945328 172.868 7.19413 89.9037 -17.1716 -1.89045 0.281303 65.5144 -1.58998 4.98299 27.7896 1.30528 0.246515 -0.263423 8.30022 -90.2021 10.2724 -0.617132 -0.34842 -1.39845 -0.63187 -0.320929 -23.934 -0.483894 -0.517789 -3.92137 -0.483891 -0.51779 96.0169 -50.7321 -91.4589 26.9674 -16.791 -13.8696 0.301066 -8.46299 -17.7946 -8.73781 -0.180288 -2.93762 -81.9282 -50.4689 90.9193 -37.6913 -16.9405 -24.3011 -2.43179 52.7722 0.341441 0.179099 -0.24817 -12.5045 21.3178 -2.7068 3.49807 -8.94192 -3.62385 -2.04781 
-4.70198 97.4264 -9.37306 92.5901 -82.3817 92.5288 -179.177 8.13834 88.7435 -12.9948 3.46141 1.36853 62.1074 2.08444 -0.225198 27.2689 -0.695734 1.05737 172.918 9.85597 89.7598 -17.8972 -1.67268 0.643546 65.1008 -1.4297 4.29133 27.5162 1.66636 0.272858 -0.267164 8.67757 -90.217 9.51755 -0.63037 -0.382313 -2.15328 -0.646599 -0.354213 -24.6888 -0.486331 -0.554097 -4.67615 -0.486332 -0.554099 95.6141 -50.3261 -92.1291 24.837 -15.6767 -15.8895 0.256225 -6.34635 -19.2687 -8.87848 -0.0957138 -4.1453 -82.381 -50.1294 90.2095 -35.5957 -14.1448 -26.4727 -1.31047 46.3935 -4.34 -0.0873612 -0.256393 -12.6726 23.6283 -2.7652 5.09909 -7.28773 -4.25331 -3.43418 
-4.77916 96.967 -11.3774 71.3267 -81.5636 71.6053 179.929 14.1298 88.8582 -15.9206 2.43649 1.24718 62.0274 2.04526 -0.630772 26.8394 -0.856291 0.823764 173.126 15.3489 89.9333 -20.0444 -1.59324 1.41958 64.7573 -1.46545 3.62861 27.5397 1.67239 -0.264117 -0.179069 8.98059 -90.2691 8.91139 -0.477064 -0.50032 -2.75956 -0.498602 -0.478834 -25.2943 -0.304644 -0.620569 -5.28161 -0.304637 -0.620546 95.3142 -49.5696 -92.6931 22.4304 -14.8026 -18.9721 0.213377 -5.64949 -20.556 -10.4621 -0.108497 -4.14803 -82.9184 -49.7966 89.3662 -33.1606 -10.5539 -29.6857 1.17448 40.7358 -11.9374 -0.498778 -0.243982 -13.7775 26.058 -2.74405 6.59696 -5.49296 -4.88532 -4.92074 
-4.83203 96.2214 -13.5629 56.0008 -80.606 56.8018 179.427 20.4254 89.2636 -20.4455 1.84859 1.00632 62.6401 2.2946 -0.709428 26.887 -0.8622 1.1401 173.056 20.8387 90.2045 -22.783 -1.92179 2.33278 64.1361 -2.16292 2.58576 27.9897 1.02777 0.448988 -0.0430132 9.44541 -90.3712 7.98178 -0.248143 -0.720621 -3.68933 -0.279626 -0.709009 -26.2229 -0.0201114 -0.761886 -6.21025 -0.020106 -0.761882 94.8869 -48.2208 -93.556 20.2044 -12.5905 -22.7571 -0.305718 -5.29447 -22.7947 -10.9791 -0.103658 -4.25623 -83.6706 -49.0187 88.1408 -31.8988 -7.0917 -33.999 2.86543 35.1913 -18.8679 1.98381 -0.438277 -13.4385 28.6342 -2.33245 8.44765 -4.20936 -5.34994 -6.98632 
-4.80789 95.3063 -15.5318 46.1104 -80.1085 46.6494 179.392 25.1541 89.1372 -24.0782 1.96225 0.396401 63.0056 2.41244 0.254616 27.4315 -0.62134 0.969012 172.446 25.5833 89.921 -25.9284 -3.59448 3.10771 63.8373 -3.55556 1.45412 28.7169 0.0725524 0.312243 0.037996 10.0396 -90.366 6.79396 -0.0804491 -0.716416 -4.8772 -0.111894 -0.712189 -27.4108 0.138572 -0.707481 -7.39815 0.138582 -0.707478 94.0635 -47.058 -95.0484 17.4296 -9.88678 -27.9929 -0.364944 -4.81381 -24.7568 -12.4768 -0.149609 -3.91563 -84.7092 -48.1868 86.4478 -31.471 -4.93422 -39.6123 6.10542 34.0933 -24.9581 2.72561 -0.522307 -13.8908 28.3327 -1.99685 8.28419 -0.00709298 -5.17655 -6.32149 
-4.64412 94.1498 -17.3172 37.366 -78.168 37.3984 179.767 31.12 88.6358 -28.3801 2.66265 -0.679906 63.4885 3.13019 0.57962 28.0317 -0.45434 2.16801 171.242 31.8072 89.2679 -30.3779 -5.05327 4.30958 64.2261 -4.91644 0.757009 29.275 -0.66353 0.191675 0.00987722 10.4916 -90.3396 5.88984 -0.122694 -0.664158 -5.78127 -0.151795 -0.658104 -28.3151 0.0825825 -0.670327 -8.30243 0.0825854 -0.670313 93.5929 -45.5741 -96.0703 16.1471 -7.16199 -34.1361 -1.23626 -5.64806 -27.3176 -13.6956 -0.159939 -3.9345 -85.5924 -47.1615 84.9359 -31.4161 -3.11482 -46.0793 11.092 35.2392 -30.7916 -3.1668 -0.00862149 -16.1406 28.2482 -0.557879 6.99 2.2249 -3.3979 -5.46543 
-4.46597 92.3945 -18.7564 32.4203 -76.0098 32.1501 -178.936 37.701 87.9412 -34.3404 3.34888 -1.9011 64.4213 4.65279 1.05985 29.7543 0.290017 2.06493 168.938 38.3335 88.8917 -35.9427 -7.55781 6.05378 64.7279 -6.66283 -0.497834 30.6064 -2.42783 0.604681 0.0304953 10.8447 -90.3577 5.18361 -0.086959 -0.700468 -6.48752 -0.117689 -0.695973 -29.0212 0.127573 -0.694224 -9.00854 0.127583 -0.694219 93.7569 -43.4642 -96.1918 15.8647 -5.41654 -38.9937 -2.24342 -5.02638 -32.5565 -14.8221 -0.137789 -4.20703 -86.2235 -44.8446 83.5734 -33.7826 -0.429634 -52.367 17.4928 38.2245 -36.0523 -8.34465 0.587406 -17.4034 27.2071 0.245992 6.93875 5.6341 -2.78179 -6.47832 
-4.25812 90.1343 -19.7584 29.1956 -74.3611 29.0032 -176.817 44.2716 86.8879 -41.9687 4.50192 -2.68724 65.6506 6.95517 1.94062 32.6405 1.51369 2.04274 166.154 44.6427 89.4838 -42.7907 -9.364 7.39188 65.6834 -8.81185 -1.40059 32.0237 -4.26988 1.16848 0.0828737 11.1598 -90.4188 4.55368 -0.00519212 -0.821631 -7.11752 -0.0413481 -0.820621 -29.6507 0.241971 -0.785219 -9.63809 0.241973 -0.785222 93.7718 -41.6496 -96.5195 15.1625 -4.53211 -43.5065 -4.03965 -4.57298 -39.3755 -14.7268 -0.141472 -4.17141 -86.6945 -43.0218 82.489 -35.9695 2.98356 -57.7523 21.0866 39.9864 -39.0204 -6.89111 0.401915 -16.8824 26.6165 -0.190679 7.86635 8.71627 -3.74878 -7.20021 
